<svg id="svg" xmlns="http://www.w3.org/2000/svg" xmlns:xlink="http://www.w3.org/1999/xlink" width="400" height="201.54440154440152" viewBox="0, 0, 400,201.54440154440152"><g id="svgg"><path id="path0" d="M72.201 4.933 C 65.513 7.851,58.687 20.591,58.687 30.154 C 58.687 32.889,58.151 32.965,54.826 30.695 C 48.967 26.696,47.928 19.964,51.856 11.442 C 54.616 5.454,54.503 5.005,50.422 5.767 C 33.459 8.935,37.762 38.247,55.536 40.605 L 59.216 41.093 60.097 50.104 C 63.300 82.829,36.933 108.597,17.825 91.417 C -0.846 74.630,19.601 35.729,42.144 45.149 C 45.421 46.518,46.316 45.389,44.819 41.776 C 40.325 30.926,23.249 31.317,12.780 42.510 C -0.770 56.995,1.368 87.063,16.755 98.415 C 44.525 118.904,80.850 83.021,74.045 41.820 L 73.187 36.625 78.535 31.247 C 93.203 16.495,88.688 -2.263,72.201 4.933 M81.213 10.544 C 84.569 13.581,82.275 21.012,76.142 26.979 C 71.942 31.065,71.563 30.835,71.175 23.967 C 70.602 13.827,76.349 6.142,81.213 10.544 M236.518 20.050 C 228.775 24.771,229.359 37.888,237.265 36.828 C 242.641 36.107,246.332 31.239,246.332 24.868 C 246.332 18.764,242.064 16.668,236.518 20.050 M210.278 25.122 C 206.073 27.217,203.832 29.939,200.285 37.259 C 198.445 41.057,197.829 41.699,196.022 41.699 C 194.715 41.699,193.452 42.353,192.708 43.415 C 191.044 45.791,191.179 46.199,193.725 46.476 L 195.944 46.718 189.285 61.245 C 182.305 76.472,178.410 82.459,172.875 86.469 C 165.200 92.028,164.957 88.089,172.040 72.909 C 182.947 49.534,182.500 40.927,170.378 40.927 C 164.864 40.927,160.614 43.090,156.178 48.154 L 153.668 51.019 153.668 48.007 C 153.668 43.650,151.213 40.772,147.755 41.078 L 145.108 41.313 137.612 57.931 C 127.068 81.307,121.917 88.803,116.402 88.803 C 114.043 88.803,114.854 86.315,123.524 66.934 C 132.237 47.457,131.952 48.525,129.352 45.116 C 122.717 36.417,102.514 40.150,90.353 52.323 C 67.483 75.214,74.018 109.976,97.583 90.782 L 101.931 87.241 101.931 89.602 C 101.931 97.526,113.944 98.118,122.699 90.624 C 125.835 87.940,125.869 87.931,125.869 89.797 C 125.869 92.831,128.666 95.759,131.523 95.715 C 133.926 95.678,134.115 95.397,140.695 82.009 C 150.839 61.370,160.580 47.876,165.335 47.876 C 168.061 47.876,166.854 52.421,160.682 65.395 C 150.831 86.104,151.423 95.753,162.544 95.753 C 167.760 95.753,171.108 94.184,176.835 89.058 C 179.127 87.007,180.744 85.755,180.428 86.276 C 179.513 87.785,181.350 93.267,183.206 94.566 C 187.654 97.682,196.277 95.416,202.779 89.422 L 206.178 86.290 206.178 89.126 C 206.178 98.633,220.059 98.162,229.349 88.339 C 233.376 84.081,233.298 84.065,234.354 89.326 C 236.013 97.583,245.910 98.277,255.112 90.782 L 259.459 87.241 259.459 89.602 C 259.459 98.506,272.517 98.027,282.060 88.773 C 286.788 84.188,287.256 84.046,287.263 87.194 C 287.265 88.292,287.897 90.226,288.666 91.494 L 290.066 93.798 286.660 96.054 C 278.516 101.449,274.321 113.706,278.407 120.171 C 279.336 121.642,279.211 122.030,277.182 123.974 C 272.848 128.127,273.378 135.135,278.026 135.135 C 282.571 135.135,285.714 131.678,285.714 126.679 L 285.714 124.324 290.319 124.324 C 301.103 124.324,310.026 117.695,316.542 104.841 C 319.825 98.366,320.102 98.057,323.695 96.864 C 328.670 95.211,336.004 90.234,339.286 86.283 L 341.942 83.086 342.776 86.138 C 344.880 93.831,348.897 96.739,357.529 96.820 C 386.037 97.086,409.466 45.566,383.307 40.136 C 368.763 37.116,351.632 50.028,344.645 69.275 C 341.340 78.383,334.211 86.818,326.257 91.037 C 321.879 93.359,321.811 93.600,332.039 70.673 C 337.139 59.240,341.313 49.271,341.313 48.520 C 341.313 46.347,336.255 41.834,333.171 41.255 C 315.442 37.929,296.743 50.094,289.556 69.630 C 286.032 79.210,278.213 88.803,273.931 88.803 C 271.572 88.803,272.383 86.315,281.053 66.934 C 289.766 47.457,289.481 48.525,286.881 45.116 C 282.878 39.868,269.010 39.236,259.167 43.853 C 251.039 47.665,242.702 56.362,238.575 65.332 C 232.725 78.050,232.073 79.137,227.387 83.977 C 222.516 89.007,219.305 90.312,219.305 87.260 C 219.305 86.412,223.004 77.464,227.524 67.376 C 232.044 57.288,236.557 47.210,237.553 44.981 L 239.363 40.927 234.081 40.927 C 225.097 40.927,223.330 42.747,215.570 59.997 C 207.121 78.777,200.101 88.803,195.400 88.803 C 192.653 88.803,193.515 86.037,202.617 65.637 L 211.403 45.946 214.970 45.711 C 218.026 45.509,218.705 45.149,219.713 43.201 L 220.889 40.927 217.394 40.927 C 215.472 40.927,213.900 40.801,213.900 40.648 C 213.900 40.495,215.637 36.658,217.761 32.122 C 219.884 27.586,221.622 23.715,221.622 23.520 C 221.622 22.291,213.720 23.407,210.278 25.122 M379.265 47.730 C 382.331 55.570,373.863 82.014,366.017 89.103 C 358.564 95.836,354.783 89.254,357.860 74.903 C 362.407 53.699,375.231 37.419,379.265 47.730 M116.955 46.279 C 118.447 48.692,99.902 83.385,94.847 87.639 C 84.562 96.293,91.573 69.154,103.692 53.399 C 108.541 47.095,115.238 43.500,116.955 46.279 M274.484 46.279 C 275.976 48.692,257.431 83.385,252.376 87.639 C 242.091 96.293,249.102 69.154,261.221 53.399 C 266.070 47.095,272.767 43.500,274.484 46.279 M327.603 46.517 C 328.715 49.852,309.895 84.632,305.377 87.592 C 295.992 93.741,302.952 67.940,314.694 53.054 C 319.698 46.711,326.517 43.257,327.603 46.517 M307.336 95.074 C 307.336 97.216,298.176 113.285,295.222 116.324 C 288.162 123.588,284.520 118.896,289.524 108.982 C 293.770 100.571,307.336 89.979,307.336 95.074 M108.494 111.865 C 102.162 114.749,97.016 122.631,94.567 133.198 C 93.478 137.899,92.787 139.151,89.219 142.892 C 75.028 157.770,75.092 181.467,89.324 181.467 C 99.426 181.467,106.776 173.746,119.265 150.014 C 122.216 144.406,124.693 139.893,124.770 139.986 C 124.846 140.079,124.406 142.934,123.792 146.332 C 121.896 156.831,123.368 172.973,126.220 172.973 C 126.755 172.973,128.511 169.759,130.122 165.830 C 135.202 153.438,143.108 141.205,150.957 133.591 L 154.539 130.116 150.898 135.521 C 136.900 156.305,135.520 179.151,148.263 179.151 C 152.387 179.151,152.774 178.761,150.990 176.402 C 143.917 167.051,161.718 125.580,176.531 116.899 C 183.032 113.089,179.746 112.375,169.951 115.469 C 158.993 118.931,144.839 130.575,136.293 143.158 C 133.288 147.583,133.197 147.646,132.939 145.475 C 132.079 138.238,137.008 120.947,141.051 117.020 C 145.611 112.591,142.932 110.324,136.823 113.441 L 133.938 114.912 127.463 112.668 C 119.761 109.999,113.201 109.722,108.494 111.865 M129.175 119.884 C 126.057 123.277,120.567 132.604,114.289 145.174 C 103.483 166.812,98.896 173.514,93.093 176.150 C 80.458 181.889,78.735 163.232,90.682 150.036 L 94.018 146.351 96.354 148.851 C 99.257 151.959,103.513 152.310,106.321 149.672 C 108.710 147.428,108.573 146.718,105.753 146.718 C 102.696 146.718,98.395 144.540,99.422 143.512 C 99.839 143.095,102.485 142.359,105.303 141.876 C 111.172 140.871,111.314 140.654,107.951 137.824 C 105.782 135.999,104.972 135.784,101.376 136.082 C 96.684 136.471,96.593 136.059,100.051 130.029 C 104.644 122.016,112.122 118.165,123.108 118.154 L 130.771 118.147 129.175 119.884 M244.256 135.714 C 236.893 156.327,227.524 172.201,222.721 172.201 C 220.998 172.201,221.194 171.640,228.897 154.454 L 236.173 138.224 231.975 138.224 C 225.946 138.224,223.624 140.686,218.503 152.510 C 213.964 162.991,212.432 165.797,208.699 170.463 C 200.653 180.522,203.685 167.027,213.960 147.050 L 218.499 138.224 215.024 138.224 C 208.753 138.224,202.487 146.211,197.320 160.789 C 195.239 166.662,188.018 173.907,186.575 171.571 C 186.361 171.225,188.773 165.140,191.935 158.049 C 195.096 150.959,197.683 144.668,197.683 144.070 C 197.683 132.135,172.565 138.010,163.608 152.040 C 152.420 169.564,160.785 186.316,174.324 173.501 L 176.834 171.126 176.834 173.152 C 176.834 179.637,185.927 179.393,192.857 172.722 L 196.139 169.563 196.139 172.040 C 196.139 177.825,203.667 179.763,208.762 175.290 C 211.720 172.693,212.355 172.478,212.355 174.076 C 212.355 177.381,219.306 178.862,223.784 176.512 C 229.338 173.595,235.932 163.947,241.825 150.113 C 244.398 144.071,246.162 140.834,246.627 141.299 C 248.149 142.821,247.208 146.629,242.927 156.276 C 235.821 172.288,236.175 177.606,244.350 177.606 C 248.041 177.606,248.953 177.256,252.440 174.499 C 255.590 172.009,256.371 171.669,256.371 172.783 C 256.371 179.920,267.265 179.170,273.927 171.574 C 276.351 168.810,276.425 168.783,276.441 170.656 C 276.450 171.718,276.956 173.542,277.565 174.710 C 278.174 175.878,278.373 176.834,278.006 176.834 C 271.425 176.834,266.556 193.450,272.017 197.275 C 279.552 202.552,291.949 195.982,298.303 183.344 C 299.914 180.139,300.806 179.264,303.224 178.513 C 309.601 176.535,319.691 165.970,319.691 161.270 C 319.691 158.537,317.679 159.881,314.476 164.753 C 311.625 169.089,303.345 176.282,302.422 175.225 C 302.267 175.048,305.237 167.961,309.022 159.476 C 317.715 139.986,317.122 137.695,303.558 138.357 C 292.696 138.888,284.871 145.139,278.386 158.467 C 273.753 167.990,266.386 175.612,266.418 170.849 C 266.423 170.106,269.551 162.567,273.368 154.095 C 277.186 145.624,280.309 138.587,280.309 138.458 C 280.309 138.329,278.445 138.224,276.166 138.224 C 271.093 138.224,268.794 139.811,266.375 144.984 C 256.773 165.517,252.515 172.201,249.036 172.201 C 247.221 172.201,247.604 170.667,251.737 161.390 C 257.384 148.717,257.159 145.849,249.938 138.417 C 245.645 133.999,244.982 133.683,244.256 135.714 M187.645 142.501 C 187.645 144.839,177.387 164.632,173.953 168.919 C 166.681 177.999,166.647 167.928,173.903 154.231 C 178.046 146.412,187.645 138.218,187.645 142.501 M305.788 142.664 C 305.778 144.527,293.884 167.029,291.668 169.379 C 284.678 176.790,284.907 167.714,292.050 154.231 C 296.282 146.243,305.813 138.218,305.788 142.664 M289.931 179.730 C 285.632 190.024,278.347 197.657,276.762 193.526 C 275.673 190.690,281.440 181.494,286.035 178.740 C 290.602 176.001,291.403 176.205,289.931 179.730 " stroke="none" fill="#000000" fill-rule="evenodd"></path></g></svg>